<svg xmlns="http://www.w3.org/2000/svg" viewBox="0 0 740 320" role="img" aria-labelledby="campus-connect-logo-title">
  <title id="campus-connect-logo-title">Campus Connect</title>
  <defs>
    <linearGradient id="ccGradient" x1="0%" y1="0%" x2="100%" y2="100%">
      <stop offset="0%" stop-color="#ffb347" />
      <stop offset="45%" stop-color="#ff8500" />
      <stop offset="100%" stop-color="#ff6a00" />
    </linearGradient>
  </defs>
  <g transform="translate(32 20)">
    <path
      fill="url(#ccGradient)"
      d="M188 0h-52C59.6 0 0 59.6 0 132s59.6 132 136 132h52v-32h-52c-53.4 0-96-43.1-96-100s42.6-100 96-100h52z"
    />
    <path
      fill="url(#ccGradient)"
      d="M332 0h-52c-76.4 0-136 59.6-136 132s59.6 132 136 132h52v-32h-52c-53.4 0-120-43.1-120-100s66.6-100 120-100h52z"
    />
    <g transform="translate(140 52)">
      <rect x="44" y="8" width="156" height="128" rx="20" fill="#ffffff" opacity="0.94" />
      <rect x="64" y="28" width="120" height="88" rx="12" fill="#ff9d3d" />
      <rect x="112" y="44" width="32" height="56" rx="4" fill="#ffffff" />
      <rect x="84" y="56" width="44" height="22" rx="3" fill="#ffffff" opacity="0.9" />
      <rect x="84" y="90" width="44" height="22" rx="3" fill="#ffffff" opacity="0.9" />
      <rect x="124" y="90" width="12" height="22" fill="#ff9d3d" />
      <rect x="124" y="56" width="12" height="18" fill="#ff9d3d" />
      <rect x="112" y="120" width="32" height="14" fill="#ff9d3d" />
      <path d="M160 28l40 30v70h-40z" fill="#ffb347" opacity="0.86" />
    </g>
  </g>
  <g transform="translate(404 112)">
    <text x="0" y="60" font-family="'Poppins', 'Segoe UI', Arial, sans-serif" font-size="74" font-weight="600" fill="#1f3d8a" letter-spacing="0.4">Campus</text>
    <text x="0" y="140" font-family="'Poppins', 'Segoe UI', Arial, sans-serif" font-size="74" font-weight="600" fill="#1f3d8a" letter-spacing="0.4">Connect</text>
  </g>
</svg>
